<?xml version="1.0" encoding="UTF-8"?>
<svg width="112px" height="105px" viewBox="0 0 112 105" version="1.1" xmlns="http://www.w3.org/2000/svg" xmlns:xlink="http://www.w3.org/1999/xlink">
    <!-- Generator: Sketch 59.1 (86144) - https://sketch.com -->
    <title>logo</title>
    <desc>Created with Sketch.</desc>
    <defs>
        <polygon id="path-1" points="0 0.267 111.6279 0.267 111.6279 80.401361 0 80.401361"></polygon>
        <polygon id="path-3" points="0 105.733 111.628 105.733 111.628 1 0 1"></polygon>
    </defs>
    <g id="Scouting.nl" stroke="none" stroke-width="1" fill="none" fill-rule="evenodd">
        <g id="home-v2" transform="translate(-100.000000, -50.000000)">
            <g id="logo" transform="translate(48.000000, -72.000000)">
                <g transform="translate(52.000000, 121.000000)">
                    <g id="Group-3" transform="translate(0.000000, 0.733000)">
                        <mask id="mask-2" fill="white">
                            <use xlink:href="#path-1"></use>
                        </mask>
                        <g id="Clip-2"></g>
                        <path d="M46.1499,0.467 C45.1249,0.77 41.7579,1.967 41.4109,4.681 C41.3929,4.819 41.3829,4.966 41.3829,5.12 C41.3829,5.196 41.3929,5.277 41.3969,5.356 C40.9629,5.343 40.5619,5.33 40.2909,5.321 L37.5259,5.264 L36.5279,5.44 C35.3409,5.632 32.1389,6.156 32.0739,9.446 C32.0639,9.665 32.0269,10.532 32.0269,10.532 C32.0269,12.487 32.4259,14.622 33.1519,16.544 C33.3659,17.117 33.6929,17.558 33.9309,17.879 C33.9339,17.885 34.0739,18.086 34.1159,18.146 C34.5339,19.787 35.2299,21.137 36.0599,22.327 C33.8159,22.597 31.5499,22.962 29.3169,23.633 L29.7679,23.548 C28.5489,23.64 27.3809,24.288 26.1979,25.53 L26.0879,25.644 L25.9969,25.774 C25.5999,26.339 25.3129,26.892 25.1249,27.439 C20.5099,28.806 16.7119,29.974 13.6299,30.983 C10.9129,31.877 5.5039,34.18 5.2749,34.277 L5.1269,34.34 C5.1269,34.34 5.0959,34.361 5.0869,34.367 C5.0469,34.383 5.0059,34.4 5.0059,34.4 C0.8689,36.085 -0.0001,38.935 -0.0001,41.028 C-0.0001,44.315 2.5529,45.229 3.7799,45.668 C4.0569,45.766 4.3439,45.869 4.4909,45.952 C6.1439,46.857 7.7319,46.544 8.8909,46.316 L9.6759,46.18 C10.2439,46.11 10.8699,45.925 11.4919,45.729 C12.0659,46.931 13.1159,48.042 14.7629,48.361 C16.1709,48.636 17.1109,48.376 17.8659,48.104 C17.9089,48.527 17.9949,48.948 18.1689,49.359 C18.4599,50.046 18.9459,50.676 19.5499,51.212 C18.5509,51.993 17.1359,53.399 17.1359,55.105 C17.1359,55.258 17.1469,55.414 17.1709,55.572 C17.1709,55.571 17.1879,55.689 17.1879,55.689 C17.3179,56.599 17.6619,59.021 20.9749,60.378 C22.2499,60.9 23.7249,61.047 25.3769,60.836 C25.5229,61.335 25.7409,61.806 26.0309,62.234 C25.1189,62.684 24.9139,62.839 24.7739,62.952 L24.7279,62.99 C24.1199,63.508 23.2359,64.319 22.5689,65.359 C22.2919,65.774 21.4579,67.166 21.4579,68.752 C21.4579,69.038 21.4849,69.33 21.5479,69.625 C21.7589,70.617 22.3269,71.43 23.1929,71.977 C24.3969,72.72 25.7129,72.797 26.7269,72.7 C26.8929,73.769 27.6749,74.988 30.0959,75.697 L30.2499,75.743 C31.0289,75.981 32.0789,75.939 34.2909,75.751 L35.1809,75.683 C35.4479,75.673 35.8979,75.607 36.4229,75.513 C36.4229,76.6 36.7439,77.566 37.3519,78.287 L37.3959,78.337 C38.7659,79.858 40.8319,80.27 41.6569,80.378 C42.5759,80.505 43.7469,80.115 46.0189,79.188 L46.5749,78.966 C46.6859,78.922 46.9619,78.842 47.2869,78.752 C47.3739,78.87 47.4369,78.993 47.5449,79.106 C48.0359,79.611 48.9119,80.202 50.3049,80.153 C51.5759,80.12 53.7199,79.642 53.9589,79.588 L54.0879,79.559 L54.2099,79.515 C56.8589,78.561 65.5909,75.396 66.7569,74.769 L66.8009,74.744 C67.7689,74.256 75.5169,71.784 78.8239,70.728 L81.2039,69.966 C84.6899,68.869 87.8909,66.392 88.8139,65.432 L88.8469,65.395 C89.6199,64.553 90.1219,63.397 90.3439,61.959 C90.3679,61.806 90.3789,61.655 90.3789,61.505 C90.3789,60.75 90.0849,60.035 89.6929,59.358 C91.5049,58.549 93.2729,57.758 93.3239,57.735 C93.9739,57.496 95.6429,56.748 96.3419,55.205 C96.5059,54.844 96.5789,54.489 96.6009,54.144 C98.5339,53.647 100.6669,53.101 100.6669,53.101 C100.6679,53.101 100.7329,53.085 100.7329,53.085 C101.9579,52.794 105.2159,52.022 108.2479,50.519 C111.0829,49.147 111.6279,47.522 111.6279,46.15 C111.6279,45.963 111.6179,45.784 111.6029,45.608 L111.5929,45.483 L111.5829,45.641 C111.5959,45.54 111.6009,45.437 111.6009,45.333 C111.6009,43.91 110.4239,42.392 109.3449,41.599 C109.3279,41.537 109.3149,41.494 109.3149,41.494 C108.6309,40.67 107.6089,40.617 107.1179,40.591 L107.1719,40.594 L106.5699,40.496 C105.7899,40.331 104.9409,40.206 103.1279,40.246 C103.0859,39.699 102.9999,39.176 102.8299,38.688 C101.7569,35.467 98.9149,33.168 95.5959,32.853 C93.5169,32.592 91.9069,32.685 90.1749,32.832 C91.6629,31.092 93.1919,29.125 93.5929,27.95 C93.9419,26.96 94.5829,22.437 94.6139,22.016 L94.6179,21.953 L94.6269,21.372 C94.6269,20.125 94.5019,19.278 94.3969,18.594 C94.3899,18.526 94.2659,17.407 94.2529,17.296 C94.1549,14.296 93.6539,11.634 93.5529,11.125 L92.5489,6.145 L89.5529,10.228 C89.1609,10.769 88.6799,11.417 88.4709,11.678 C87.8749,12.138 85.1149,14.047 83.0269,15.355 C82.5599,13.472 81.4429,11.817 79.6749,10.549 L79.5959,10.492 L79.5119,10.444 C77.2879,9.143 74.8419,7.934 72.0369,7.895 C69.2259,7.8 66.6089,8.372 64.2569,9.599 C62.8289,10.371 61.7719,11.497 60.8399,12.491 C60.2529,13.114 59.7109,13.691 59.1349,14.147 L59.2459,14.065 C58.7369,14.415 58.2639,14.787 57.8079,15.165 C57.4549,13.312 57.0439,11.234 56.1299,9.211 C55.0189,6.835 53.5369,4.785 51.4609,2.737 C50.4519,1.701 48.6009,0.905 47.5849,0.524 L47.4629,0.48 L46.8289,0.267 L46.1499,0.467 Z" id="Fill-1" fill="#FFFFFF" mask="url(#mask-2)"></path>
                    </g>
                    <path d="M20.0561,55.2892 C19.9351,54.5342 20.9321,53.4452 21.9581,52.7222 C23.0151,51.9972 24.7061,51.2422 25.7341,50.8802 C26.7601,50.5472 27.4841,50.3052 28.0581,50.1242 C31.3811,48.9772 38.8711,46.3502 39.1721,46.2302 C39.5041,46.0772 56.5061,40.5222 57.9571,40.2172 C59.3741,39.9162 65.4751,37.2002 66.1121,36.6552 C66.5311,36.2932 78.8841,34.8732 80.4861,35.6592 C82.0541,36.4442 79.9721,41.8212 82.8421,41.0342 C85.6771,40.2512 94.5271,38.8612 96.0961,41.3972 C97.6671,43.9352 96.4001,45.2042 95.2831,45.6852 C94.1941,46.1402 73.6301,51.2722 73.6301,51.2722 C73.6301,51.2722 44.3361,59.1842 43.2191,59.3642 C42.3431,59.5182 36.3041,61.3902 34.0071,62.1422 C33.3751,62.3552 34.0981,62.1142 32.8911,62.4762 C31.3501,62.9272 31.6221,62.6872 30.9271,62.5662 C29.3881,62.2652 28.2091,61.2062 28.0881,59.7602 C27.9681,58.3402 30.3541,57.5242 30.1731,57.5242 C29.9911,57.5242 25.6741,59.7302 22.5631,58.4612 C20.2371,57.5242 20.1761,56.0742 20.0561,55.2892" id="Fill-4" fill="#FFFFFF"></path>
                    <path d="M30.8438,63.0969 C30.8438,63.0969 46.4878,58.2369 48.1788,57.6009 C49.8698,56.9669 68.2298,51.9219 69.4998,51.6519 C70.7368,51.3789 83.6628,47.3929 85.1398,46.9999 C86.6198,46.6079 96.3768,44.0099 96.3768,44.0099 C96.3768,44.0099 99.4868,43.2579 102.6278,43.1059 C105.7678,42.9849 105.8568,43.3479 107.0058,43.4369 C108.1538,43.4989 107.4588,43.7399 107.8228,43.8609 C108.1538,43.9509 109.5728,45.4009 109.4838,46.0959 C109.3908,46.7909 110.1758,47.9679 107.3078,49.3559 C104.4398,50.7769 101.3288,51.5009 100.1808,51.7729 C99.0348,52.0439 93.4758,53.4929 93.4758,53.4929 C93.4758,53.4929 94.8368,54.1279 94.4148,55.0649 C93.9908,55.9999 92.5108,56.5129 92.5108,56.5129 L85.4748,59.6569 C85.4748,59.6569 87.2268,60.1679 87.4668,60.5299 C87.7098,60.8939 88.3428,61.7999 88.2508,62.3709 C88.1618,62.9469 87.9488,63.9749 87.2858,64.6979 C86.6198,65.3929 83.7228,67.6889 80.5518,68.6859 C77.3818,69.7109 66.8698,73.0019 65.7538,73.6369 C64.6348,74.2399 53.4928,78.2579 53.4928,78.2579 C53.4928,78.2579 51.3498,78.7409 50.2308,78.7699 C48.4818,78.8309 48.6018,76.9589 48.6018,76.9589 C48.6018,76.9589 46.3368,77.5029 45.7618,77.7459 C45.1878,77.9569 42.5918,79.1039 41.9278,79.0109 C41.2318,78.9209 39.8128,78.5899 38.9688,77.6529 C38.1518,76.6869 38.6978,74.7549 38.9988,74.5419 C39.2698,74.3289 39.9028,73.3359 39.9028,73.3359 C39.9028,73.3359 35.9178,74.2709 35.1018,74.3009 C34.3168,74.3289 31.5688,74.6649 30.8718,74.4539 C30.1798,74.2399 28.5498,73.8789 28.8508,72.6119 C29.1528,71.3099 29.9678,70.3469 30.8438,69.9849 C31.7198,69.6189 27.6728,71.0989 27.6728,71.0989 C27.6728,71.0989 25.7398,71.7949 24.3218,70.9189 C22.9318,70.0419 23.8078,68.0479 24.3518,67.2349 C24.8938,66.3889 25.6798,65.6939 26.1018,65.3329 C26.5548,64.9689 30.8438,63.0969 30.8438,63.0969" id="Fill-6" fill="#0066B2"></path>
                    <path d="M6.1047,36.9574 C6.1047,36.9574 11.6297,34.6034 14.2877,33.7274 C20.3867,31.7334 27.9077,29.5594 30.3847,28.8344 C32.7387,28.1104 40.0177,25.9044 46.1777,24.0324 C51.0717,22.5534 55.2977,21.2844 55.7517,21.1644 C56.8077,20.9234 77.9467,14.2784 78.6437,15.0934 C79.3367,15.8784 81.5127,17.8414 81.3917,20.6824 C81.2707,23.5504 76.0167,30.5254 75.1107,31.0074 C74.1727,31.4624 58.5317,34.5434 58.5317,34.5434 C58.5317,34.5434 66.6237,31.3414 66.9847,34.6634 C67.3197,37.9844 60.7027,39.1634 60.3717,39.3434 C60.0407,39.5554 47.2357,43.5714 37.6327,46.6514 C31.2597,48.7034 27.1527,50.2744 26.7607,50.3364 C25.7347,50.4254 23.9517,51.8154 22.1687,51.1204 C20.9627,50.6384 19.4237,49.2804 20.1167,47.5894 C20.8117,45.8654 22.2917,45.5344 22.2917,45.5344 C22.2917,45.5344 21.3237,45.8654 19.2717,46.2304 C17.2177,46.5614 16.8547,47.3454 15.1637,47.0144 C13.4427,46.6834 12.9877,44.6284 13.0797,44.0544 C13.1987,43.4814 10.6647,44.6584 9.4247,44.8114 C8.1567,44.9624 6.7977,45.5344 5.5297,44.8394 C4.2927,44.1444 2.1177,44.1444 2.1177,41.7604 C2.1177,38.0744 5.8337,37.1674 6.1047,36.9574" id="Fill-8" fill="#EC1C24"></path>
                    <path d="M81.8406,20.4171 C81.8406,20.4161 81.6126,19.4711 81.6126,19.4711 C81.4136,18.6961 81.1686,17.7331 81.1486,17.3221 C80.9526,15.6031 80.0446,14.1501 78.4436,13.0041 C76.4636,11.8461 74.3206,10.7741 72.0026,10.7441 C69.5466,10.6541 67.2716,11.1471 65.2376,12.2081 C64.1376,12.8031 63.2456,13.7531 62.3816,14.6741 C61.7756,15.3171 61.1506,15.9841 60.4476,16.5401 C59.5986,17.1251 58.8106,17.8131 58.0486,18.4751 L56.7016,19.6191 C56.6716,19.6281 56.5176,19.6951 56.4706,19.6741 L56.4396,19.6191 C56.1656,18.5851 55.9626,17.5221 55.7666,16.4921 C55.4106,14.6181 55.0436,12.6801 54.2006,10.8171 C53.2056,8.6871 51.8546,6.8251 49.9486,4.9501 C49.0936,4.0681 46.9156,3.2671 46.8246,3.2321 L46.7866,3.2191 L46.7496,3.2301 C46.6236,3.2671 43.7066,4.1391 43.5096,5.6831 C43.4106,6.4631 44.0226,7.2571 45.3326,8.0401 C45.3296,8.0401 45.3606,8.0661 45.3896,8.0891 C45.0286,8.3301 42.0356,8.2301 40.2196,8.1701 L37.6886,8.1171 C37.6656,8.1221 36.8976,8.2581 36.8976,8.2581 C35.6406,8.4631 34.2136,8.6911 34.1886,10.2291 C34.1586,10.5661 34.1436,10.9111 34.1436,11.2661 C34.1436,12.9621 34.4906,14.8281 35.1326,16.5271 C35.2446,16.8271 35.4426,17.0971 35.6326,17.3541 C35.8206,17.6121 36.0006,17.8541 36.0986,18.1251 C36.7426,20.9391 38.4156,22.7731 40.1896,24.7181 C40.1896,24.7181 40.2096,24.7421 40.2186,24.7511 C40.1136,24.7601 40.0056,24.7701 40.0056,24.7701 C36.6636,25.0831 33.2046,25.4081 29.9256,26.3931 C29.2626,26.4411 28.5346,26.8781 27.7296,27.7241 C27.2076,28.4681 26.9726,29.0921 26.9726,29.7121 C26.9456,29.8921 26.9336,30.0741 26.9336,30.2581 C26.9336,31.2941 27.3336,32.3591 28.1706,33.5541 C29.2736,35.2891 30.4986,36.6911 31.9096,37.8381 C33.7006,39.1861 35.6576,40.1251 38.2616,40.8801 C39.4116,41.2351 40.3506,40.5761 41.2616,39.9381 C41.6946,39.6341 42.1476,39.3481 42.6136,39.1481 C41.9376,40.3631 41.4136,41.8591 41.4136,43.3071 C41.4136,44.4061 41.7096,45.4691 42.4646,46.3391 C43.3116,47.2521 44.5256,47.7091 45.5976,48.0661 C46.2326,48.1831 46.8366,48.1711 47.4736,48.1541 L48.6766,48.1611 C50.0156,48.0771 51.4026,47.3611 52.2226,46.3351 C54.6026,42.8081 55.8016,39.0511 55.8016,35.1411 C55.8016,34.6901 55.7846,34.2351 55.7516,33.7801 C55.7686,33.7441 55.8856,33.4831 55.8856,33.4831 C55.8856,33.4831 55.9316,33.3861 55.9756,33.2921 C56.1266,33.4301 57.0626,34.2721 57.0626,34.2721 C58.2266,35.1851 58.2816,35.3041 58.9376,36.7551 L60.2636,39.5501 C60.5986,40.2051 60.7536,41.1571 60.7536,42.3131 C60.7536,47.5581 57.5236,56.9931 52.9736,62.0321 C51.9626,63.1541 51.4636,63.9591 51.4636,64.4691 C51.4636,64.6011 51.4966,64.7121 51.5606,64.8051 C52.0926,65.5711 54.6066,64.6051 54.8906,64.4911 L54.9266,64.4781 L54.9466,64.4441 C55.0106,64.3421 61.3536,54.2771 63.3866,46.2591 C63.7216,44.9401 63.9286,43.4531 63.9286,41.9201 C63.9286,38.7741 63.0626,35.4361 60.6696,32.9781 C60.6446,32.9581 60.1756,32.5671 60.1756,32.5671 C59.9816,32.3831 59.7566,32.1801 59.4966,32.0251 C59.5526,31.9131 59.6556,31.6941 59.7106,31.5781 C60.8966,31.8891 61.9896,32.3721 63.0446,32.8441 C64.3146,33.4121 65.5126,33.9481 66.8726,34.2061 C67.3516,34.3251 67.6916,34.5221 68.0196,34.7141 C68.5166,35.0031 68.9846,35.2741 69.8606,35.2371 L71.2116,35.0931 C71.8206,35.0031 72.2216,34.9431 72.6426,35.1351 C72.7936,35.2041 73.0006,35.1681 73.2696,35.0211 C74.4366,34.3861 76.5616,31.7811 76.7376,30.5421 C76.7456,30.4721 76.7456,30.3901 76.7456,30.3011 C76.7456,29.2471 76.3466,27.0011 75.1546,26.0821 C74.5576,25.6141 73.3246,24.9901 72.2376,24.4411 C71.3726,24.0061 70.3246,23.4731 70.1326,23.2591 C73.3266,21.5241 76.2056,22.8601 76.2356,22.8731 C79.2296,24.8021 80.2036,25.4281 80.5476,25.6011 C80.5636,25.6121 80.5536,25.6371 80.5706,25.6451 C80.5706,25.6451 80.5846,25.6251 80.5896,25.6211 C80.7216,25.6841 80.7476,25.6681 80.7706,25.6371 L80.8386,25.5311 L80.7016,25.4411 C80.5916,25.3711 80.8136,24.9071 81.0056,24.4981 C81.4606,23.5401 82.1456,22.0961 81.8406,20.4171" id="Fill-10" fill="#00A551"></path>
                    <path d="M75.1544,26.0797 L75.1544,26.0807 L75.1544,26.0797 Z" id="Fill-12" fill="#00A551"></path>
                    <path d="M100.8317,40.1187 C100.0127,37.6607 97.8747,35.9237 95.3837,35.6907 C93.2367,35.4157 91.6757,35.5527 89.6977,35.7287 L88.3577,35.8427 C88.0297,35.8427 86.5757,36.4257 84.5537,37.2497 C84.0757,37.4457 83.6177,37.6317 83.2277,37.7857 C84.3327,36.8757 86.0907,35.0437 87.5797,33.3207 C89.3007,31.3937 91.2557,28.9777 91.5897,27.9987 C91.8397,27.2907 92.4697,23.0407 92.5027,22.5927 C92.5067,22.4227 92.5097,22.2597 92.5097,22.1057 C92.5097,20.9967 92.3987,20.2597 92.2977,19.5977 L92.1437,18.1987 C92.0507,15.0857 91.4797,12.2897 91.4737,12.2597 L91.4197,11.9937 L91.2587,12.2147 C91.2477,12.2287 90.2317,13.6327 89.9687,13.9267 C89.7017,14.1937 85.5407,17.0777 83.2007,18.4627 C79.5027,20.6707 77.8317,23.5327 77.2827,24.4727 L77.1507,24.6927 C76.8087,25.2567 76.4137,26.1307 76.0347,26.9757 C75.6787,27.7657 75.3447,28.5137 75.0987,28.8887 C74.7537,29.3987 74.3427,30.5347 74.0437,31.3667 C73.9107,31.7327 73.7837,32.0807 73.7367,32.1527 C73.4937,32.4117 73.3967,32.9447 73.3027,33.4577 C73.2497,33.7517 73.1887,34.0247 73.1047,34.2267 C73.0657,34.1547 73.0227,34.0617 72.9887,33.9607 C72.9787,33.9217 72.6617,32.8547 70.6557,29.1387 C68.7997,25.6787 68.5157,25.7017 65.0467,26.0087 L63.7437,26.1167 C59.9117,26.3967 57.0717,28.3737 55.5467,29.4357 L54.8447,29.9097 C54.0557,30.3947 52.5097,32.5747 50.7237,35.0987 L48.7017,37.9227 L48.9717,37.8947 C49.4447,37.8397 49.8857,37.9047 50.3567,37.9727 C50.8477,38.0427 51.3567,38.1027 51.8977,38.0267 C51.8667,38.1727 51.8337,38.3197 51.8337,38.4677 C51.8337,39.2037 52.2177,39.9347 52.9277,40.4957 C53.8147,41.3817 54.6707,41.9067 55.7777,42.2377 C55.9157,42.2437 55.9977,42.4287 56.0727,42.6117 C56.1577,42.8087 56.2447,43.0137 56.4087,43.1267 L56.4707,43.1707 L56.5507,43.1327 C56.6897,43.0557 56.7497,42.7327 56.8417,39.6237 C56.8597,39.0047 56.8777,38.3637 56.8947,38.2847 C57.5627,36.1717 59.2117,34.8267 61.4097,34.6037 C62.2247,34.5157 64.5617,34.8097 64.9037,36.5287 C64.9137,36.5597 65.3677,37.5757 65.6377,37.8517 C65.6407,37.8657 66.3997,40.0427 66.3997,40.0427 C66.8657,41.4297 67.2357,42.5247 68.0547,44.2277 C68.1657,44.4297 68.1777,44.6437 68.1897,44.8657 L68.2257,45.2227 C68.2617,45.4037 68.2797,45.5947 68.2797,45.7917 C68.2797,46.4817 68.0647,47.2617 67.6637,48.0137 C67.3337,48.5877 66.6337,49.4447 66.1157,49.5537 C64.7757,49.8077 64.4347,49.5857 63.6127,49.0497 L62.8497,48.5717 C62.2947,48.2467 61.7667,45.8617 61.6077,44.9717 C61.7937,43.1527 62.0547,40.0107 61.7477,39.7617 C61.5607,39.5967 61.2087,39.8717 59.0607,41.8657 C57.7597,43.0757 56.1397,44.5797 54.8047,45.5897 C52.8957,47.0147 51.9477,48.7947 51.2547,50.0957 C50.9537,50.6607 50.6927,51.1487 50.4387,51.4327 C50.0777,51.8177 50.2157,52.3357 50.3487,52.8357 L50.4687,53.3457 C50.7027,54.5387 51.4297,55.4367 52.1337,56.3057 L52.2757,56.4827 C52.7507,57.1377 54.1637,58.8537 54.1777,58.8707 C54.2127,58.9007 56.5857,61.1407 58.5157,59.4887 C61.2367,58.6087 62.5297,57.7807 62.5807,57.7447 C63.5487,57.2667 64.6077,56.7777 65.1297,56.5817 C64.2537,57.4317 62.4997,59.7267 61.8887,61.5937 C61.2797,63.5097 60.0157,66.5717 59.6917,67.2237 L59.3587,67.8707 C58.7217,69.1277 57.2277,72.0707 56.8417,72.4807 C56.3557,72.9657 56.1657,73.3007 56.4987,73.7787 C56.5677,73.8827 56.6477,73.9357 56.7397,73.9447 C56.9037,73.9587 57.0417,73.8217 57.2147,73.6507 C57.3787,73.4877 57.5837,73.2867 57.8577,73.1557 C58.2487,72.9517 60.3907,70.9667 62.6557,68.8667 C64.4627,67.1907 66.3307,65.4587 66.9387,64.9897 C68.1887,64.0147 69.1347,63.0677 70.3317,61.8687 L70.6657,61.5367 C70.6657,61.5367 73.7977,58.3517 74.2817,57.8597 C74.6677,58.1037 76.6607,59.3207 78.2137,59.8137 C79.3367,60.0357 80.6627,60.2047 82.0577,59.8137 C84.5437,59.0797 88.3137,56.3257 91.0377,54.1467 L91.1957,54.0197 L91.0117,53.9397 C90.5077,53.7227 89.9307,53.9127 89.1967,54.1517 C88.2877,54.4457 87.1537,54.8167 85.6697,54.5657 C83.5207,54.2507 82.7457,53.9437 82.1807,53.7187 L81.7917,53.5727 C81.7887,53.5727 81.5587,53.4997 81.5587,53.4997 C80.1107,53.0507 78.6117,52.5807 77.7477,51.3257 C77.7387,51.3037 77.7357,51.2817 77.7357,51.2567 C77.7357,51.1567 77.7777,51.0127 77.8247,50.8547 L77.9157,50.4777 C78.1127,49.7317 78.6817,49.2247 79.2297,48.7357 L79.7237,48.2777 C80.7397,47.0437 81.6967,46.2487 82.7387,45.7647 C83.6067,45.3217 84.9637,44.7647 86.5347,44.6267 L87.4817,44.6177 C88.5117,44.6037 89.4837,44.5877 90.4927,44.7487 C91.2477,44.8477 91.4487,45.6467 91.6427,46.4197 L91.6937,46.6227 C91.7197,47.1317 91.6107,47.7757 91.3927,48.3617 C91.2057,48.5247 88.9757,48.7547 87.6467,48.8927 C85.7947,49.0827 85.7937,49.0897 85.7647,49.2167 L85.7547,49.2647 L85.7897,49.3147 C86.3107,50.1137 88.0337,50.4677 89.0167,50.6067 C91.7707,50.9927 95.5227,50.7347 96.7817,49.6417 C98.4317,48.1277 99.6527,46.4957 100.3177,44.9177 C101.0827,42.8867 101.2507,41.3207 100.8317,40.1187" id="Fill-14" fill="#FFDD00"></path>
                    <path d="M30.1736,57.5245 C29.9956,57.5305 25.6636,59.7395 22.5656,58.4695 C20.2426,57.5145 20.1696,56.0775 20.0496,55.2985 C19.9696,54.7775 20.3896,54.1105 20.9876,53.5065 C20.0186,54.2345 19.1506,55.2515 19.2636,55.9835 C19.3816,56.7595 19.4546,58.2005 21.7776,59.1525 C24.1596,60.1275 27.2696,59.0495 28.6606,58.4945 C29.3186,57.8615 30.2896,57.5205 30.1736,57.5245" id="Fill-16" fill="#231F20"></path>
                    <path d="M33.4138,62.294 C32.6188,62.478 31.4508,62.656 30.9238,62.558 C29.3858,62.268 28.2128,61.21 28.0888,59.754 C28.0558,59.365 28.2098,59.025 28.4448,58.733 C27.8628,59.111 27.2398,59.687 27.3028,60.439 C27.4248,61.893 28.5998,62.952 30.1378,63.24 C30.2348,63.259 30.3128,63.279 30.3788,63.299 C30.6658,63.174 30.8438,63.097 30.8438,63.097 C30.8438,63.097 31.8668,62.776 33.4138,62.294" id="Fill-18" fill="#231F20"></path>
                    <path d="M2.1915,95.5943 L6.9615,95.2963 C7.0655,96.0713 7.2755,96.6603 7.5925,97.0673 C8.1085,97.7233 8.8475,98.0513 9.8065,98.0513 C10.5215,98.0513 11.0735,97.8843 11.4605,97.5473 C11.8485,97.2123 12.0425,96.8233 12.0425,96.3803 C12.0425,95.9593 11.8575,95.5843 11.4895,95.2503 C11.1195,94.9193 10.2635,94.6053 8.9205,94.3103 C6.7215,93.8163 5.1535,93.1603 4.2165,92.3413 C3.2735,91.5223 2.8005,90.4773 2.8005,89.2073 C2.8005,88.3743 3.0415,87.5863 3.5255,86.8443 C4.0075,86.1043 4.7355,85.5203 5.7055,85.0963 C6.6765,84.6713 8.0065,84.4603 9.6955,84.4603 C11.7685,84.4603 13.3495,84.8453 14.4385,85.6173 C15.5275,86.3883 16.1735,87.6133 16.3805,89.2963 L11.6545,89.5733 C11.5295,88.8423 11.2655,88.3113 10.8625,87.9793 C10.4615,87.6463 9.9065,87.4823 9.1975,87.4823 C8.6155,87.4823 8.1755,87.6053 7.8805,87.8523 C7.5855,88.1003 7.4385,88.4003 7.4385,88.7543 C7.4385,89.0123 7.5595,89.2443 7.8035,89.4513 C8.0385,89.6653 8.5995,89.8653 9.4855,90.0493 C11.6775,90.5213 13.2475,90.9993 14.1955,91.4823 C15.1435,91.9653 15.8335,92.5653 16.2645,93.2813 C16.6975,93.9973 16.9125,94.7983 16.9125,95.6823 C16.9125,96.7233 16.6245,97.6833 16.0495,98.5613 C15.4725,99.4383 14.6695,100.1043 13.6365,100.5583 C12.6035,101.0123 11.3005,101.2393 9.7295,101.2393 C6.9685,101.2393 5.0585,100.7083 3.9965,99.6453 C2.9335,98.5823 2.3315,97.2323 2.1915,95.5943" id="Fill-20" fill="#EC1C24"></path>
                    <path d="M27.903,96.358 L32.186,96.845 C31.951,97.738 31.563,98.511 31.024,99.165 C30.486,99.817 29.798,100.325 28.96,100.686 C28.123,101.047 27.058,101.228 25.767,101.228 C24.52,101.228 23.481,101.112 22.651,100.88 C21.82,100.649 21.107,100.272 20.51,99.753 C19.912,99.232 19.443,98.623 19.103,97.922 C18.765,97.221 18.595,96.292 18.595,95.135 C18.595,93.927 18.801,92.919 19.215,92.116 C19.517,91.527 19.93,90.997 20.455,90.529 C20.978,90.061 21.516,89.713 22.07,89.485 C22.947,89.124 24.073,88.943 25.446,88.943 C27.365,88.943 28.828,89.285 29.835,89.971 C30.841,90.658 31.547,91.662 31.954,92.982 L27.715,93.547 C27.582,93.045 27.341,92.667 26.99,92.413 C26.639,92.157 26.169,92.03 25.579,92.03 C24.834,92.03 24.23,92.297 23.769,92.832 C23.307,93.366 23.077,94.174 23.077,95.256 C23.077,96.221 23.305,96.954 23.764,97.455 C24.22,97.956 24.804,98.206 25.511,98.206 C26.102,98.206 26.599,98.056 27.001,97.754 C27.404,97.451 27.703,96.986 27.903,96.358" id="Fill-22" fill="#EC1C24"></path>
                    <path d="M38.2184,95.1073 C38.2184,96.1563 38.4294,96.9313 38.8544,97.4313 C39.2784,97.9343 39.8124,98.1853 40.4544,98.1853 C41.1024,98.1853 41.6354,97.9383 42.0534,97.4433 C42.4704,96.9493 42.6784,96.1563 42.6784,95.0633 C42.6784,94.0443 42.4674,93.2863 42.0484,92.7883 C41.6274,92.2903 41.1064,92.0423 40.4874,92.0423 C39.8304,92.0423 39.2874,92.2953 38.8604,92.8003 C38.4324,93.3053 38.2184,94.0743 38.2184,95.1073 M33.7024,95.1183 C33.7024,93.3253 34.3074,91.8483 35.5174,90.6853 C36.7274,89.5243 38.3624,88.9413 40.4204,88.9413 C42.7744,88.9413 44.5524,89.6253 45.7554,90.9903 C46.7224,92.0893 47.2064,93.4433 47.2064,95.0513 C47.2064,96.8593 46.6054,98.3423 45.4074,99.4963 C44.2084,100.6503 42.5494,101.2283 40.4314,101.2283 C38.5434,101.2283 37.0154,100.7493 35.8494,99.7893 C34.4174,98.6013 33.7024,97.0433 33.7024,95.1183" id="Fill-24" fill="#EC1C24"></path>
                    <path d="M61.7604,100.9625 L57.5534,100.9625 L57.5534,99.0595 C56.9264,99.8415 56.2944,100.3975 55.6564,100.7295 C55.0184,101.0625 54.2334,101.2275 53.3044,101.2275 C52.0644,101.2275 51.0914,100.8565 50.3864,100.1165 C49.6834,99.3745 49.3304,98.2325 49.3304,96.6905 L49.3304,89.2075 L53.8564,89.2075 L53.8564,95.6715 C53.8564,96.4105 53.9934,96.9345 54.2664,97.2445 C54.5404,97.5535 54.9244,97.7075 55.4174,97.7075 C55.9574,97.7075 56.3984,97.5025 56.7404,97.0885 C57.0844,96.6765 57.2554,95.9345 57.2554,94.8645 L57.2554,89.2075 L61.7604,89.2075 L61.7604,100.9625 Z" id="Fill-26" fill="#EC1C24"></path>
                    <path d="M69.9284,84.7364 L69.9284,89.2084 L72.4074,89.2084 L72.4074,92.5054 L69.9284,92.5054 L69.9284,96.6714 C69.9284,97.1714 69.9774,97.5024 70.0724,97.6654 C70.2194,97.9154 70.4774,98.0404 70.8474,98.0404 C71.1784,98.0404 71.6434,97.9454 72.2414,97.7544 L72.5734,100.8634 C71.4594,101.1074 70.4194,101.2284 69.4514,101.2284 C68.3304,101.2284 67.5044,101.0844 66.9734,100.7974 C66.4414,100.5104 66.0484,100.0744 65.7934,99.4874 C65.5404,98.9014 65.4124,97.9524 65.4124,96.6414 L65.4124,92.5054 L63.7524,92.5054 L63.7524,89.2084 L65.4124,89.2084 L65.4124,87.0504 L69.9284,84.7364 Z" id="Fill-28" fill="#EC1C24"></path>
                    <mask id="mask-4" fill="white">
                        <use xlink:href="#path-3"></use>
                    </mask>
                    <g id="Clip-31"></g>
                    <path d="M74.72,100.963 L79.225,100.963 L79.225,89.208 L74.72,89.208 L74.72,100.963 Z M74.72,87.802 L79.225,87.802 L79.225,84.736 L74.72,84.736 L74.72,87.802 Z" id="Fill-30" fill="#EC1C24" mask="url(#mask-4)"></path>
                    <path d="M82.103,89.2082 L86.298,89.2082 L86.298,91.1232 C86.924,90.3412 87.559,89.7822 88.202,89.4462 C88.844,89.1102 89.626,88.9432 90.547,88.9432 C91.796,88.9432 92.77,89.3142 93.475,90.0542 C94.18,90.7962 94.533,91.9422 94.533,93.4922 L94.533,100.9632 L90.005,100.9632 L90.005,94.4992 C90.005,93.7612 89.87,93.2392 89.596,92.9322 C89.323,92.6272 88.939,92.4732 88.445,92.4732 C87.899,92.4732 87.457,92.6802 87.117,93.0932 C86.777,93.5062 86.608,94.2482 86.608,95.3182 L86.608,100.9632 L82.103,100.9632 L82.103,89.2082 Z" id="Fill-32" fill="#EC1C24" mask="url(#mask-4)"></path>
                    <path d="M101.1621,94.9085 C101.1621,95.7575 101.3431,96.3855 101.7041,96.7945 C102.0651,97.2045 102.5421,97.4095 103.1331,97.4095 C103.6931,97.4095 104.1641,97.1975 104.5441,96.7735 C104.9231,96.3485 105.1131,95.7095 105.1131,94.8525 C105.1131,93.9965 104.9151,93.3415 104.5171,92.8885 C104.1171,92.4345 103.6301,92.2075 103.0551,92.2075 C102.4791,92.2075 102.0191,92.4155 101.6771,92.8335 C101.3331,93.2505 101.1621,93.9425 101.1621,94.9085 L101.1621,94.9085 Z M105.4011,89.2085 L109.6191,89.2085 L109.6191,100.3095 L109.6291,100.8305 C109.6291,101.5675 109.4721,102.2695 109.1581,102.9395 C108.8461,103.6065 108.4291,104.1465 107.9081,104.5605 C107.3871,104.9725 106.7281,105.2715 105.9281,105.4565 C105.1261,105.6415 104.2101,105.7325 103.1771,105.7325 C100.8151,105.7325 99.1941,105.3795 98.3121,104.6695 C97.4311,103.9625 96.9901,103.0135 96.9901,101.8265 C96.9901,101.6775 96.9971,101.4795 97.0111,101.2285 L101.3831,101.7265 C101.4941,102.1315 101.6641,102.4125 101.8931,102.5685 C102.2251,102.7965 102.6421,102.9105 103.1441,102.9105 C103.7921,102.9105 104.2771,102.7365 104.5981,102.3895 C104.9201,102.0425 105.0801,101.4385 105.0801,100.5745 L105.0801,98.7935 C104.6381,99.3175 104.1961,99.6975 103.7521,99.9325 C103.0581,100.3025 102.3091,100.4865 101.5061,100.4865 C99.9351,100.4865 98.6651,99.7995 97.6971,98.4275 C97.0111,97.4545 96.6691,96.1675 96.6691,94.5645 C96.6691,92.7355 97.1111,91.3415 97.9961,90.3815 C98.8821,89.4225 100.0401,88.9425 101.4721,88.9425 C102.3861,88.9425 103.1411,89.0965 103.7351,89.4075 C104.3301,89.7175 104.8851,90.2295 105.4011,90.9465 L105.4011,89.2085 Z" id="Fill-33" fill="#EC1C24" mask="url(#mask-4)"></path>
                </g>
            </g>
        </g>
    </g>
</svg>
